<?xml version="1.0" encoding="UTF-8" standalone="no"?>
<svg xmlns="http://www.w3.org/2000/svg" version="1.2" baseProfile="tiny" viewBox="0.00 0.00 46.00 30.00">
<g stroke-width="2.00" fill="none" stroke-linecap="butt">
<path stroke="#5f1306" vector-effect="non-scaling-stroke" d="
  M 13.75 0.00
  Q 1.89 2.08 0.00 13.70"
/>
<path stroke="#5f1306" vector-effect="non-scaling-stroke" d="
  M 39.98 0.00
  Q 45.11 0.70 46.00 5.49"
/>
<path stroke="#5f1306" vector-effect="non-scaling-stroke" d="
  M 46.00 8.28
  Q 43.00 15.89 39.63 21.85
  Q 35.95 28.37 28.81 30.00"
/>
<path stroke="#5f1306" vector-effect="non-scaling-stroke" d="
  M 13.21 30.00
  Q 9.22 29.69 6.03 27.23
  Q 0.76 23.18 0.00 16.73"
/>
<path stroke="#9a1506" vector-effect="non-scaling-stroke" d="
  M 43.40 4.76
  Q 42.36 2.28 40.32 2.21
  Q 34.81 2.02 16.53 2.17
  C 11.07 2.21 6.81 3.84 4.16 8.35
  C 0.21 15.07 2.68 23.06 9.35 26.87
  Q 11.69 28.21 16.88 28.19
  Q 27.11 28.15 27.48 28.12
  C 35.27 27.51 38.67 19.05 41.79 12.39
  C 42.99 9.84 44.52 7.47 43.40 4.76"
/>
<path stroke="#9a1506" vector-effect="non-scaling-stroke" d="
  M 40.84 5.23
  Q 39.73 4.38 38.27 4.39
  Q 23.10 4.50 19.18 4.34
  Q 12.74 4.09 10.51 5.32
  C 4.14 8.83 1.70 16.28 6.63 21.87
  C 9.17 24.73 11.45 25.97 15.53 25.90
  Q 18.75 25.85 24.95 25.91
  C 29.43 25.96 32.46 24.83 34.79 21.28
  Q 37.65 16.90 40.69 10.48
  C 41.52 8.71 42.63 6.61 40.84 5.23"
/>
<path stroke="#701406" vector-effect="non-scaling-stroke" d="
  M 21.17 11.60
  A 1.17 1.17 0.0 0 1 19.89 11.61
  L 16.18 9.21
  A 1.17 1.17 0.0 0 0 14.57 10.84
  L 16.99 14.52
  A 1.17 1.17 0.0 0 1 17.00 15.80
  L 14.60 19.51
  A 1.17 1.17 0.0 0 0 16.23 21.12
  L 19.91 18.70
  A 1.17 1.17 0.0 0 1 21.19 18.69
  L 24.90 21.09
  A 1.17 1.17 0.0 0 0 26.51 19.46
  L 24.09 15.78
  A 1.17 1.17 0.0 0 1 24.08 14.50
  L 26.48 10.79
  A 1.17 1.17 0.0 0 0 24.85 9.18
  L 21.17 11.60"
/>
</g>
<path fill="#bd230a" d="
  M 39.98 0.00
  Q 45.11 0.70 46.00 5.49
  L 46.00 8.28
  Q 43.00 15.89 39.63 21.85
  Q 35.95 28.37 28.81 30.00
  L 13.21 30.00
  Q 9.22 29.69 6.03 27.23
  Q 0.76 23.18 0.00 16.73
  L 0.00 13.70
  Q 1.89 2.08 13.75 0.00
  L 39.98 0.00
  Z
  M 43.40 4.76
  Q 42.36 2.28 40.32 2.21
  Q 34.81 2.02 16.53 2.17
  C 11.07 2.21 6.81 3.84 4.16 8.35
  C 0.21 15.07 2.68 23.06 9.35 26.87
  Q 11.69 28.21 16.88 28.19
  Q 27.11 28.15 27.48 28.12
  C 35.27 27.51 38.67 19.05 41.79 12.39
  C 42.99 9.84 44.52 7.47 43.40 4.76
  Z"
/>
<path fill="#770701" d="
  M 43.40 4.76
  C 44.52 7.47 42.99 9.84 41.79 12.39
  C 38.67 19.05 35.27 27.51 27.48 28.12
  Q 27.11 28.15 16.88 28.19
  Q 11.69 28.21 9.35 26.87
  C 2.68 23.06 0.21 15.07 4.16 8.35
  C 6.81 3.84 11.07 2.21 16.53 2.17
  Q 34.81 2.02 40.32 2.21
  Q 42.36 2.28 43.40 4.76
  Z
  M 40.84 5.23
  Q 39.73 4.38 38.27 4.39
  Q 23.10 4.50 19.18 4.34
  Q 12.74 4.09 10.51 5.32
  C 4.14 8.83 1.70 16.28 6.63 21.87
  C 9.17 24.73 11.45 25.97 15.53 25.90
  Q 18.75 25.85 24.95 25.91
  C 29.43 25.96 32.46 24.83 34.79 21.28
  Q 37.65 16.90 40.69 10.48
  C 41.52 8.71 42.63 6.61 40.84 5.23
  Z"
/>
<path fill="#bd230a" d="
  M 40.84 5.23
  C 42.63 6.61 41.52 8.71 40.69 10.48
  Q 37.65 16.90 34.79 21.28
  C 32.46 24.83 29.43 25.96 24.95 25.91
  Q 18.75 25.85 15.53 25.90
  C 11.45 25.97 9.17 24.73 6.63 21.87
  C 1.70 16.28 4.14 8.83 10.51 5.32
  Q 12.74 4.09 19.18 4.34
  Q 23.10 4.50 38.27 4.39
  Q 39.73 4.38 40.84 5.23
  Z
  M 21.17 11.60
  A 1.17 1.17 0.0 0 1 19.89 11.61
  L 16.18 9.21
  A 1.17 1.17 0.0 0 0 14.57 10.84
  L 16.99 14.52
  A 1.17 1.17 0.0 0 1 17.00 15.80
  L 14.60 19.51
  A 1.17 1.17 0.0 0 0 16.23 21.12
  L 19.91 18.70
  A 1.17 1.17 0.0 0 1 21.19 18.69
  L 24.90 21.09
  A 1.17 1.17 0.0 0 0 26.51 19.46
  L 24.09 15.78
  A 1.17 1.17 0.0 0 1 24.08 14.50
  L 26.48 10.79
  A 1.17 1.17 0.0 0 0 24.85 9.18
  L 21.17 11.60
  Z"
/>
<path fill="#230401" d="
  M 21.17 11.60
  L 24.85 9.18
  A 1.17 1.17 0.0 0 1 26.48 10.79
  L 24.08 14.50
  A 1.17 1.17 0.0 0 0 24.09 15.78
  L 26.51 19.46
  A 1.17 1.17 0.0 0 1 24.90 21.09
  L 21.19 18.69
  A 1.17 1.17 0.0 0 0 19.91 18.70
  L 16.23 21.12
  A 1.17 1.17 0.0 0 1 14.60 19.51
  L 17.00 15.80
  A 1.17 1.17 0.0 0 0 16.99 14.52
  L 14.57 10.84
  A 1.17 1.17 0.0 0 1 16.18 9.21
  L 19.89 11.61
  A 1.17 1.17 0.0 0 0 21.17 11.60
  Z"
/>
</svg>