<?xml version="1.0" encoding="UTF-8" standalone="no"?>
<svg xmlns="http://www.w3.org/2000/svg" version="1.2" baseProfile="tiny" viewBox="0.00 0.00 643.00 408.00">
<g stroke-width="2.00" fill="none" stroke-linecap="butt">
<path stroke="#363636" vector-effect="non-scaling-stroke" d="
  M 643.00 84.91
  Q 632.02 74.82 621.49 67.52
  Q 606.16 56.88 587.39 49.91
  Q 567.10 42.38 546.66 38.69
  C 541.41 37.75 535.17 37.26 529.82 36.66
  C 520.65 35.63 511.72 36.22 502.57 36.02
  Q 496.43 35.88 487.98 36.59
  Q 452.44 39.60 421.89 48.18
  Q 411.63 51.06 407.14 52.56
  Q 400.91 54.64 397.23 54.83
  Q 390.67 55.17 387.00 54.90
  Q 370.32 53.64 354.44 51.30
  C 333.63 48.24 315.20 42.68 297.10 31.67
  Q 295.26 30.55 293.51 28.98
  Q 287.17 23.30 281.68 16.52
  Q 278.21 12.24 272.53 12.81
  Q 266.29 13.43 264.49 19.24
  C 261.22 29.78 261.76 40.61 262.18 52.50
  Q 262.24 54.13 263.92 64.59
  C 264.67 69.25 266.35 73.36 267.32 76.95
  C 271.87 93.69 285.38 107.41 298.89 117.50
  A 1.39 1.38 36.3 0 1 299.19 119.42
  Q 295.52 124.50 291.97 130.68
  Q 280.29 151.06 273.24 174.74
  Q 267.93 192.54 266.83 203.30
  C 266.67 204.91 265.65 206.63 265.81 208.32
  Q 265.94 209.67 265.35 212.13
  C 264.76 214.58 265.07 217.39 264.68 219.87
  C 263.79 225.42 264.10 230.42 263.52 235.86
  Q 262.42 246.22 263.32 254.03
  Q 264.29 262.36 263.68 264.48
  Q 261.93 270.55 257.94 274.33
  A 0.62 0.62 0.0 0 1 257.09 274.33
  C 255.60 272.90 253.24 271.27 252.17 270.26
  Q 245.07 263.58 225.95 246.57
  C 216.81 238.43 209.59 231.70 199.84 224.23
  Q 197.81 222.68 195.36 220.17
  A 1.59 1.58 -56.1 0 1 195.03 218.47
  Q 199.25 208.01 206.44 201.34
  A 11.59 11.55 -78.5 0 1 209.61 199.23
  L 264.65 174.25
  A 0.61 0.61 0.0 0 0 264.68 173.15
  Q 253.16 167.01 246.71 164.19
  Q 244.11 163.05 241.48 161.85
  Q 240.07 161.21 220.43 152.25
  A 2.38 2.38 0.0 0 1 219.04 150.01
  Q 219.33 140.17 218.73 127.76
  Q 218.21 116.93 215.54 107.67
  Q 212.38 96.69 208.29 88.63
  Q 197.19 66.76 177.52 55.26
  Q 154.07 41.56 125.25 42.28
  C 89.42 43.17 57.05 67.01 38.18 96.42
  Q 36.21 99.49 29.82 111.53
  Q 25.24 120.16 23.06 127.38
  Q 18.73 141.69 17.34 153.02
  Q 15.87 165.01 16.01 178.57
  C 16.07 183.40 16.65 186.86 17.22 192.21
  Q 19.21 210.78 29.17 227.94
  Q 40.80 247.99 61.84 258.01
  Q 70.46 262.12 74.91 263.33
  Q 92.22 268.05 108.78 266.96
  Q 123.15 266.02 137.14 261.48
  A 0.46 0.46 0.0 0 1 137.73 261.81
  Q 145.24 292.45 165.54 315.08
  A 0.46 0.46 0.0 0 1 165.42 315.80
  Q 153.78 322.01 143.23 330.74
  Q 137.58 335.41 133.39 340.41
  C 126.45 348.69 120.55 360.64 119.88 372.00
  C 119.60 376.62 118.81 380.81 119.84 386.35
  A 3.98 3.88 -51.5 0 1 119.92 387.14
  L 119.95 389.41
  A 7.92 7.90 -54.1 0 0 120.30 391.60
  Q 120.64 392.50 122.36 400.38
  Q 123.22 404.32 125.37 408.00"
/>
<path stroke="#363636" vector-effect="non-scaling-stroke" d="
  M 78.68 358.97
  Q 83.56 359.33 87.70 355.36
  C 91.40 351.82 90.38 346.68 87.63 342.88
  Q 79.74 331.96 78.69 330.39
  Q 72.62 321.21 70.39 309.10
  A 12.03 11.62 42.1 0 1 70.21 306.45
  Q 70.48 300.25 71.97 291.01
  Q 72.25 289.27 72.03 285.04
  A 2.24 2.19 28.6 0 0 71.72 284.03
  C 69.54 280.34 65.56 277.38 61.01 278.27
  C 52.67 279.91 51.15 288.11 50.39 295.88
  Q 48.58 314.62 55.76 330.30
  Q 60.88 341.46 69.12 352.13
  Q 72.56 356.58 77.47 358.68
  A 3.64 3.64 0.0 0 0 78.68 358.97"
/>
<path stroke="#363636" vector-effect="non-scaling-stroke" d="
  M 105.95 293.31
  C 102.60 291.19 94.05 288.11 91.02 292.08
  C 84.67 300.43 86.67 312.06 91.21 320.62
  Q 92.94 323.89 98.48 326.03
  A 2.06 1.98 50.3 0 0 99.52 326.15
  Q 104.71 325.42 107.87 322.01
  A 2.50 2.48 74.3 0 0 108.42 321.02
  Q 109.37 317.62 109.07 315.67
  Q 107.55 305.65 107.24 295.57
  A 2.77 2.76 15.5 0 0 105.95 293.31"
/>
<path stroke="#484848" vector-effect="non-scaling-stroke" d="
  M 643.00 118.38
  Q 642.95 115.37 641.83 113.94
  C 614.39 79.21 572.49 60.17 528.98 56.51
  Q 490.18 53.24 451.81 61.36
  Q 429.06 66.18 420.75 68.77
  C 411.64 71.61 405.69 73.99 399.10 74.46
  C 389.62 75.13 380.15 73.97 370.26 73.16
  Q 345.65 71.13 322.57 64.41
  Q 300.52 57.99 282.07 45.32
  A 0.33 0.33 0.0 0 0 281.55 45.59
  C 281.79 61.98 286.80 78.26 297.77 90.69
  C 304.01 97.75 309.94 100.72 319.23 106.03
  Q 322.92 108.15 324.21 110.02
  C 328.36 116.01 323.88 120.92 319.67 125.99
  C 311.36 136.02 305.06 146.33 299.50 159.53
  C 287.13 188.91 282.22 220.21 282.93 251.75
  A 0.58 0.57 77.9 0 0 283.72 252.27
  C 293.61 248.14 304.24 246.43 313.83 252.19
  C 325.65 259.30 334.18 272.05 334.90 285.82
  Q 335.65 300.13 329.87 313.91
  Q 324.64 326.39 316.69 338.57
  A 0.88 0.87 -63.8 0 0 317.13 339.87
  C 326.70 343.26 335.26 347.85 338.27 358.56
  C 339.75 363.79 342.05 371.50 346.73 377.57
  C 353.47 386.31 357.97 392.36 364.69 399.16
  Q 371.92 406.46 372.60 406.99
  A 5.88 5.68 -10.5 0 0 373.43 407.54
  Q 374.11 407.92 377.00 407.90
  Q 411.33 407.71 480.00 408.00"
/>
<path stroke="#363636" vector-effect="non-scaling-stroke" d="
  M 349.06 408.00
  L 336.04 392.35
  A 0.69 0.69 0.0 0 0 334.99 392.33
  Q 330.08 397.75 325.89 403.36
  Q 323.89 406.04 321.31 408.00"
/>
<path stroke="#626262" vector-effect="non-scaling-stroke" d="
  M 285.62 408.00
  L 286.76 407.79
  A 6.80 6.76 -63.6 0 0 288.61 407.16
  Q 305.68 398.23 316.71 383.43
  Q 321.98 376.35 321.06 368.61
  C 319.60 356.41 308.01 358.96 298.96 359.66
  C 292.27 360.18 286.35 352.49 289.00 346.48
  Q 291.84 340.05 298.54 330.81
  Q 302.09 325.92 309.08 312.85
  C 313.10 305.35 317.14 292.87 315.22 284.45
  Q 313.26 275.84 306.33 270.46
  C 300.93 266.27 293.14 268.47 288.15 272.16
  C 278.87 279.03 271.75 287.90 265.65 295.37
  C 261.20 300.81 255.26 299.57 250.54 295.22
  Q 229.45 275.80 224.67 271.57
  Q 203.66 252.98 193.24 243.53
  Q 189.76 240.37 183.22 235.80
  Q 180.79 234.09 178.57 236.08
  Q 168.23 245.36 157.70 251.98
  A 1.58 1.57 70.5 0 0 156.98 253.50
  Q 159.42 273.64 171.11 290.14
  Q 177.63 299.35 181.47 303.55
  Q 187.61 310.27 190.07 313.39
  C 196.03 321.00 191.48 327.17 183.76 330.02
  C 170.31 334.99 157.66 341.63 148.68 352.58
  C 135.13 369.11 137.35 388.67 145.87 407.02
  A 0.63 0.61 77.1 0 0 146.43 407.38
  L 249.25 408.00"
/>
<path stroke="#484848" vector-effect="non-scaling-stroke" d="
  M 200.03 160.78
  Q 201.75 150.98 202.01 141.03
  C 202.72 113.35 193.51 83.79 168.27 69.71
  C 149.31 59.14 127.59 56.53 106.89 62.86
  C 80.61 70.89 59.49 92.07 47.21 116.21
  C 40.25 129.89 35.49 145.38 34.46 160.56
  Q 34.22 164.10 34.06 178.02
  C 33.82 198.96 41.31 221.17 57.79 234.73
  C 78.59 251.85 108.40 253.36 132.87 244.60
  C 156.64 236.08 177.22 217.79 188.23 194.82
  C 190.80 189.45 193.48 187.56 198.74 185.23
  Q 208.78 180.77 220.20 175.68
  Q 222.36 174.72 223.23 173.99
  A 1.15 1.14 37.2 0 0 222.96 172.07
  L 200.56 161.79
  A 0.93 0.92 17.4 0 1 200.03 160.78"
/>
<path stroke="#484848" vector-effect="non-scaling-stroke" d="
  M 643.00 319.59
  Q 628.65 325.76 621.01 329.77
  Q 600.83 340.36 578.60 358.09
  Q 559.87 373.02 545.11 391.86
  Q 540.00 398.38 534.09 406.83
  Q 533.29 407.96 530.36 408.00"
/>
<path stroke="#5a5a5a" vector-effect="non-scaling-stroke" d="
  M 521.89 408.00
  Q 520.48 407.59 518.99 408.00"
/>
<path stroke="#484848" vector-effect="non-scaling-stroke" d="
  M 518.52 408.00
  L 517.62 407.86
  A 0.38 0.38 0.0 0 1 517.52 407.13
  Q 529.55 401.64 537.75 391.71
  C 547.70 379.66 552.03 361.16 549.73 345.76
  C 547.59 331.44 539.04 319.08 525.79 313.06
  C 514.21 307.80 500.26 308.84 487.18 312.17
  A 0.23 0.23 0.0 0 1 486.99 311.77
  Q 492.17 307.87 495.17 303.90
  C 500.97 296.21 499.51 285.03 494.44 277.47
  C 484.24 262.23 464.25 256.78 446.78 259.14
  Q 439.16 260.16 427.49 262.95
  C 422.59 264.12 416.01 263.98 411.56 260.66
  C 408.88 258.66 407.84 254.48 407.27 251.37
  A 1.32 1.29 -22.4 0 1 407.83 250.06
  Q 423.61 239.37 434.94 223.46
  Q 444.76 209.68 449.19 190.80
  C 451.76 179.87 451.68 167.57 449.76 157.25
  Q 446.11 137.64 431.34 123.38
  C 420.21 112.62 403.01 106.89 387.78 108.09
  C 369.89 109.49 353.50 117.14 340.18 129.60
  Q 315.51 152.67 310.48 185.84
  C 307.68 204.26 312.10 225.44 323.71 239.77
  C 331.58 249.48 344.11 257.87 356.76 260.02
  Q 373.61 262.88 389.87 258.22
  A 1.02 1.02 0.0 0 1 391.07 258.74
  C 392.78 262.20 393.88 265.06 395.95 267.89
  Q 403.24 277.89 415.35 279.83
  Q 420.93 280.73 421.49 280.82
  A 2.43 2.42 78.5 0 1 423.13 281.91
  Q 427.94 289.38 434.44 296.52
  Q 451.33 315.04 476.59 314.89
  A 0.27 0.27 0.0 0 1 476.70 315.40
  Q 470.09 318.43 464.58 321.46
  C 456.42 325.95 450.02 325.76 440.01 325.47
  Q 434.06 325.30 429.70 321.79
  C 420.88 314.72 408.26 308.50 397.68 307.67
  C 385.43 306.70 372.94 311.39 364.39 320.46
  C 354.09 331.39 349.22 345.93 349.35 360.92
  Q 349.42 369.88 352.01 376.49
  C 356.82 388.79 367.92 398.03 381.26 399.27
  Q 393.99 400.44 407.72 396.65
  Q 411.55 395.60 418.97 392.96
  C 426.15 390.40 432.63 395.47 439.47 396.42
  C 445.44 397.26 451.63 396.51 457.47 395.29
  C 462.30 394.28 466.08 397.43 470.95 400.25
  Q 479.80 405.37 489.42 408.00"
/>
<path stroke="#484848" vector-effect="non-scaling-stroke" d="
  M 571.4370 116.6116
  A 80.02 66.89 -58.2 0 0 472.4207 149.3719
  A 80.02 66.89 -58.2 0 0 487.1030 252.6284
  A 80.02 66.89 -58.2 0 0 586.1193 219.8681
  A 80.02 66.89 -58.2 0 0 571.4370 116.6116"
/>
<path stroke="#484848" vector-effect="non-scaling-stroke" d="
  M 585.77 255.13
  L 582.99 262.68
  A 2.48 2.47 33.1 0 0 583.54 265.26
  Q 586.64 268.40 591.18 269.83
  C 596.01 271.35 598.74 263.25 598.97 260.06
  C 599.14 257.76 598.64 256.72 596.45 255.84
  Q 591.69 253.94 586.89 254.28
  A 1.30 1.29 -81.8 0 0 585.77 255.13"
/>
<path stroke="#484848" vector-effect="non-scaling-stroke" d="
  M 617.06 284.48
  Q 616.34 283.75 614.04 282.30
  C 602.18 274.87 596.15 296.11 609.53 296.43
  C 616.31 296.59 617.57 291.59 617.56 285.70
  A 1.80 1.79 -67.5 0 0 617.06 284.48"
/>
<path stroke="#484848" vector-effect="non-scaling-stroke" d="
  M 577.48 295.35
  Q 577.85 294.41 578.23 291.77
  C 580.13 278.18 558.69 281.28 563.76 293.39
  C 566.34 299.53 571.32 298.66 576.59 296.29
  A 1.77 1.76 -1.5 0 0 577.48 295.35"
/>
<path stroke="#484848" vector-effect="non-scaling-stroke" d="
  M 95.18 173.50
  Q 107.67 175.78 116.98 176.59
  Q 120.07 176.85 122.04 175.55
  Q 125.13 173.49 128.14 169.92
  Q 137.91 158.36 144.23 142.73
  Q 148.88 131.22 148.27 118.52
  Q 147.81 109.04 141.41 102.29
  C 138.51 99.25 132.23 96.50 128.42 95.59
  C 115.58 92.50 104.74 101.19 98.93 111.95
  Q 96.01 117.35 94.32 121.27
  Q 88.06 135.76 90.13 151.19
  Q 91.24 159.47 94.47 172.82
  A 0.90 0.89 -0.9 0 0 95.18 173.50"
/>
<path stroke="#484848" vector-effect="non-scaling-stroke" d="
  M 119.26 201.40
  A 17.59 17.59 0.0 0 0 101.67 183.81
  A 17.59 17.59 0.0 0 0 84.08 201.40
  A 17.59 17.59 0.0 0 0 101.67 218.99
  A 17.59 17.59 0.0 0 0 119.26 201.40"
/>
<path stroke="#484848" vector-effect="non-scaling-stroke" d="
  M 431.28 170.65
  A 1.80 1.79 -20.1 0 0 432.22 168.63
  Q 431.97 167.57 430.07 159.11
  Q 425.55 138.95 407.57 130.72
  C 399.21 126.89 387.20 126.72 378.77 129.26
  C 360.98 134.62 345.32 147.86 337.60 165.30
  A 1.03 1.03 0.0 0 0 338.08 166.65
  C 345.02 170.08 350.59 173.07 357.98 174.99
  Q 376.45 179.78 395.42 177.99
  Q 409.68 176.65 421.66 173.92
  Q 427.25 172.65 431.28 170.65"
/>
<path stroke="#363636" vector-effect="non-scaling-stroke" d="
  M 348.96 235.52
  Q 349.08 234.74 349.23 221.87
  C 349.26 218.53 349.88 215.72 350.06 212.51
  Q 350.21 210.00 351.37 205.59
  Q 352.54 201.12 353.91 195.32
  A 0.95 0.94 -77.1 0 0 353.21 194.19
  C 345.97 192.56 338.74 188.37 331.39 185.78
  A 0.84 0.84 0.0 0 0 330.28 186.47
  Q 329.05 196.24 329.94 205.98
  A 8.86 8.80 33.5 0 0 330.37 208.05
  Q 331.34 210.91 333.34 216.87
  C 335.99 224.76 342.56 229.88 348.22 235.75
  A 0.43 0.43 0.0 0 0 348.96 235.52"
/>
<path stroke="#626262" vector-effect="non-scaling-stroke" d="
  M 427.99 193.10
  C 421.45 193.64 415.18 195.23 408.79 196.12
  C 398.31 197.58 388.82 197.37 378.50 197.67
  Q 376.51 197.73 374.69 198.05
  A 1.27 1.27 0.0 0 0 373.70 198.90
  C 369.08 212.54 366.08 226.32 371.52 240.45
  A 0.80 0.80 0.0 0 0 372.20 240.96
  C 379.95 241.57 387.62 239.11 394.53 235.05
  Q 419.22 220.57 428.42 193.65
  A 0.42 0.41 7.3 0 0 427.99 193.10"
/>
<path stroke="#363636" vector-effect="non-scaling-stroke" d="
  M 442.18 277.42
  Q 442.21 278.72 443.01 280.03
  Q 450.72 292.60 465.10 296.90
  C 470.13 298.41 483.84 299.67 481.86 290.32
  Q 481.32 287.75 478.44 284.55
  C 471.90 277.27 461.56 274.28 452.24 275.33
  Q 444.91 276.15 443.13 276.33
  A 1.06 1.06 0.0 0 0 442.18 277.42"
/>
<path stroke="#626262" vector-effect="non-scaling-stroke" d="
  M 418.49 335.02
  C 406.04 325.76 390.56 320.13 378.03 331.37
  Q 373.53 335.41 370.32 342.55
  C 366.23 351.66 364.98 363.40 369.17 372.28
  Q 371.06 376.29 375.68 379.39
  C 379.74 382.11 386.64 382.24 391.52 381.90
  Q 401.09 381.24 411.68 376.93
  A 0.64 0.62 -17.1 0 0 412.07 376.22
  Q 411.77 374.82 411.09 367.03
  Q 409.95 353.98 415.37 342.35
  Q 416.19 340.60 418.68 335.88
  A 0.68 0.68 0.0 0 0 418.49 335.02"
/>
<path stroke="#626262" vector-effect="non-scaling-stroke" d="
  M 471.39 337.24
  A 0.73 0.72 62.0 0 0 471.09 338.23
  C 477.88 350.84 476.82 366.54 472.14 379.63
  A 1.10 1.10 0.0 0 0 472.53 380.88
  C 481.16 387.04 493.88 392.85 504.09 392.01
  C 525.23 390.27 534.32 367.67 532.26 349.10
  C 531.04 338.08 523.73 328.20 511.99 327.22
  C 497.68 326.03 483.91 330.78 471.39 337.24"
/>
<path stroke="#626262" vector-effect="non-scaling-stroke" d="
  M 453.40 375.06
  Q 456.96 364.06 456.22 354.61
  Q 455.91 350.67 452.58 345.46
  A 1.63 1.63 0.0 0 0 451.21 344.71
  L 436.87 344.71
  A 1.06 1.06 0.0 0 0 435.97 345.21
  C 432.22 351.11 430.45 355.92 430.61 362.92
  Q 430.72 367.55 430.95 371.26
  C 431.09 373.52 432.17 373.46 433.73 374.25
  Q 441.77 378.31 451.57 376.65
  A 2.36 2.34 -85.8 0 0 453.40 375.06"
/>
<path stroke="#484848" vector-effect="non-scaling-stroke" d="
  M 483.88 169.35
  A 1.20 1.19 -63.2 0 0 484.36 170.83
  C 494.02 176.72 505.30 180.73 516.84 181.11
  C 526.45 181.43 535.85 181.54 544.03 179.78
  Q 561.94 175.93 578.90 168.78
  A 1.87 1.87 0.0 0 0 580.04 166.89
  Q 578.40 147.07 563.78 135.19
  C 552.41 125.96 534.97 125.84 521.84 131.15
  C 505.06 137.94 490.84 152.54 483.88 169.35"
/>
<path stroke="#626262" vector-effect="non-scaling-stroke" d="
  M 577.47 190.60
  C 559.41 197.18 540.02 201.71 520.87 201.14
  A 0.83 0.82 11.4 0 0 520.07 201.67
  Q 515.39 214.03 518.39 225.39
  Q 520.07 231.71 526.25 240.70
  A 0.80 0.78 66.0 0 0 527.08 241.03
  C 552.12 235.14 570.38 215.18 577.87 190.99
  A 0.31 0.31 0.0 0 0 577.47 190.60"
/>
<path stroke="#363636" vector-effect="non-scaling-stroke" d="
  M 478.26 191.43
  Q 477.61 199.73 479.30 207.37
  Q 481.41 216.87 484.55 222.56
  C 487.90 228.61 493.45 234.68 499.57 236.74
  A 0.95 0.94 -89.7 0 0 500.77 235.55
  C 497.76 226.38 496.89 216.19 498.67 206.55
  Q 499.20 203.65 499.24 199.83
  A 1.60 1.60 0.0 0 0 498.20 198.32
  L 478.71 191.14
  A 0.34 0.33 11.9 0 0 478.26 191.43"
/>
<path stroke="#747474" vector-effect="non-scaling-stroke" d="
  M 284.09 408.00
  L 252.61 408.00"
/>
<path stroke="#626262" vector-effect="non-scaling-stroke" d="
  M 249.46 392.50
  C 254.60 397.04 262.98 393.03 263.75 386.71
  C 264.20 382.94 262.14 380.30 259.89 376.12
  C 253.04 363.34 254.70 347.80 261.68 335.17
  Q 264.99 329.20 265.30 328.28
  C 267.27 322.56 260.70 315.89 255.21 317.01
  Q 250.86 317.89 248.48 321.34
  Q 239.00 335.10 237.13 352.62
  Q 235.30 369.77 243.71 385.39
  Q 245.79 389.26 249.46 392.50"
/>
<path stroke="#626262" vector-effect="non-scaling-stroke" d="
  M 194.57 349.75
  C 191.02 351.97 186.96 357.13 188.99 361.51
  C 193.98 372.29 205.72 377.75 217.03 378.71
  Q 221.50 379.08 223.80 377.73
  Q 227.26 375.69 227.83 372.38
  C 229.81 360.93 219.92 360.98 212.38 358.86
  C 209.25 357.97 207.37 355.62 204.37 352.76
  C 201.43 349.97 199.73 349.75 195.56 349.49
  A 1.67 1.64 29.8 0 0 194.57 349.75"
/>
<path stroke="#363636" vector-effect="non-scaling-stroke" d="
  M 643.00 339.16
  Q 609.30 354.20 583.47 376.97
  Q 569.15 389.59 554.26 408.00"
/>
</g>
<path fill="#484848" d="
  M 643.00 0.00
  L 643.00 84.91
  Q 632.02 74.82 621.49 67.52
  Q 606.16 56.88 587.39 49.91
  Q 567.10 42.38 546.66 38.69
  C 541.41 37.75 535.17 37.26 529.82 36.66
  C 520.65 35.63 511.72 36.22 502.57 36.02
  Q 496.43 35.88 487.98 36.59
  Q 452.44 39.60 421.89 48.18
  Q 411.63 51.06 407.14 52.56
  Q 400.91 54.64 397.23 54.83
  Q 390.67 55.17 387.00 54.90
  Q 370.32 53.64 354.44 51.30
  C 333.63 48.24 315.20 42.68 297.10 31.67
  Q 295.26 30.55 293.51 28.98
  Q 287.17 23.30 281.68 16.52
  Q 278.21 12.24 272.53 12.81
  Q 266.29 13.43 264.49 19.24
  C 261.22 29.78 261.76 40.61 262.18 52.50
  Q 262.24 54.13 263.92 64.59
  C 264.67 69.25 266.35 73.36 267.32 76.95
  C 271.87 93.69 285.38 107.41 298.89 117.50
  A 1.39 1.38 36.3 0 1 299.19 119.42
  Q 295.52 124.50 291.97 130.68
  Q 280.29 151.06 273.24 174.74
  Q 267.93 192.54 266.83 203.30
  C 266.67 204.91 265.65 206.63 265.81 208.32
  Q 265.94 209.67 265.35 212.13
  C 264.76 214.58 265.07 217.39 264.68 219.87
  C 263.79 225.42 264.10 230.42 263.52 235.86
  Q 262.42 246.22 263.32 254.03
  Q 264.29 262.36 263.68 264.48
  Q 261.93 270.55 257.94 274.33
  A 0.62 0.62 0.0 0 1 257.09 274.33
  C 255.60 272.90 253.24 271.27 252.17 270.26
  Q 245.07 263.58 225.95 246.57
  C 216.81 238.43 209.59 231.70 199.84 224.23
  Q 197.81 222.68 195.36 220.17
  A 1.59 1.58 -56.1 0 1 195.03 218.47
  Q 199.25 208.01 206.44 201.34
  A 11.59 11.55 -78.5 0 1 209.61 199.23
  L 264.65 174.25
  A 0.61 0.61 0.0 0 0 264.68 173.15
  Q 253.16 167.01 246.71 164.19
  Q 244.11 163.05 241.48 161.85
  Q 240.07 161.21 220.43 152.25
  A 2.38 2.38 0.0 0 1 219.04 150.01
  Q 219.33 140.17 218.73 127.76
  Q 218.21 116.93 215.54 107.67
  Q 212.38 96.69 208.29 88.63
  Q 197.19 66.76 177.52 55.26
  Q 154.07 41.56 125.25 42.28
  C 89.42 43.17 57.05 67.01 38.18 96.42
  Q 36.21 99.49 29.82 111.53
  Q 25.24 120.16 23.06 127.38
  Q 18.73 141.69 17.34 153.02
  Q 15.87 165.01 16.01 178.57
  C 16.07 183.40 16.65 186.86 17.22 192.21
  Q 19.21 210.78 29.17 227.94
  Q 40.80 247.99 61.84 258.01
  Q 70.46 262.12 74.91 263.33
  Q 92.22 268.05 108.78 266.96
  Q 123.15 266.02 137.14 261.48
  A 0.46 0.46 0.0 0 1 137.73 261.81
  Q 145.24 292.45 165.54 315.08
  A 0.46 0.46 0.0 0 1 165.42 315.80
  Q 153.78 322.01 143.23 330.74
  Q 137.58 335.41 133.39 340.41
  C 126.45 348.69 120.55 360.64 119.88 372.00
  C 119.60 376.62 118.81 380.81 119.84 386.35
  A 3.98 3.88 -51.5 0 1 119.92 387.14
  L 119.95 389.41
  A 7.92 7.90 -54.1 0 0 120.30 391.60
  Q 120.64 392.50 122.36 400.38
  Q 123.22 404.32 125.37 408.00
  L 0.00 408.00
  L 0.00 0.00
  L 643.00 0.00
  Z
  M 78.68 358.97
  Q 83.56 359.33 87.70 355.36
  C 91.40 351.82 90.38 346.68 87.63 342.88
  Q 79.74 331.96 78.69 330.39
  Q 72.62 321.21 70.39 309.10
  A 12.03 11.62 42.1 0 1 70.21 306.45
  Q 70.48 300.25 71.97 291.01
  Q 72.25 289.27 72.03 285.04
  A 2.24 2.19 28.6 0 0 71.72 284.03
  C 69.54 280.34 65.56 277.38 61.01 278.27
  C 52.67 279.91 51.15 288.11 50.39 295.88
  Q 48.58 314.62 55.76 330.30
  Q 60.88 341.46 69.12 352.13
  Q 72.56 356.58 77.47 358.68
  A 3.64 3.64 0.0 0 0 78.68 358.97
  Z
  M 105.95 293.31
  C 102.60 291.19 94.05 288.11 91.02 292.08
  C 84.67 300.43 86.67 312.06 91.21 320.62
  Q 92.94 323.89 98.48 326.03
  A 2.06 1.98 50.3 0 0 99.52 326.15
  Q 104.71 325.42 107.87 322.01
  A 2.50 2.48 74.3 0 0 108.42 321.02
  Q 109.37 317.62 109.07 315.67
  Q 107.55 305.65 107.24 295.57
  A 2.77 2.76 15.5 0 0 105.95 293.31
  Z"
/>
<path fill="#232323" d="
  M 643.00 84.91
  L 643.00 118.38
  Q 642.95 115.37 641.83 113.94
  C 614.39 79.21 572.49 60.17 528.98 56.51
  Q 490.18 53.24 451.81 61.36
  Q 429.06 66.18 420.75 68.77
  C 411.64 71.61 405.69 73.99 399.10 74.46
  C 389.62 75.13 380.15 73.97 370.26 73.16
  Q 345.65 71.13 322.57 64.41
  Q 300.52 57.99 282.07 45.32
  A 0.33 0.33 0.0 0 0 281.55 45.59
  C 281.79 61.98 286.80 78.26 297.77 90.69
  C 304.01 97.75 309.94 100.72 319.23 106.03
  Q 322.92 108.15 324.21 110.02
  C 328.36 116.01 323.88 120.92 319.67 125.99
  C 311.36 136.02 305.06 146.33 299.50 159.53
  C 287.13 188.91 282.22 220.21 282.93 251.75
  A 0.58 0.57 77.9 0 0 283.72 252.27
  C 293.61 248.14 304.24 246.43 313.83 252.19
  C 325.65 259.30 334.18 272.05 334.90 285.82
  Q 335.65 300.13 329.87 313.91
  Q 324.64 326.39 316.69 338.57
  A 0.88 0.87 -63.8 0 0 317.13 339.87
  C 326.70 343.26 335.26 347.85 338.27 358.56
  C 339.75 363.79 342.05 371.50 346.73 377.57
  C 353.47 386.31 357.97 392.36 364.69 399.16
  Q 371.92 406.46 372.60 406.99
  A 5.88 5.68 -10.5 0 0 373.43 407.54
  Q 374.11 407.92 377.00 407.90
  Q 411.33 407.71 480.00 408.00
  L 349.06 408.00
  L 336.04 392.35
  A 0.69 0.69 0.0 0 0 334.99 392.33
  Q 330.08 397.75 325.89 403.36
  Q 323.89 406.04 321.31 408.00
  L 285.62 408.00
  L 286.76 407.79
  A 6.80 6.76 -63.6 0 0 288.61 407.16
  Q 305.68 398.23 316.71 383.43
  Q 321.98 376.35 321.06 368.61
  C 319.60 356.41 308.01 358.96 298.96 359.66
  C 292.27 360.18 286.35 352.49 289.00 346.48
  Q 291.84 340.05 298.54 330.81
  Q 302.09 325.92 309.08 312.85
  C 313.10 305.35 317.14 292.87 315.22 284.45
  Q 313.26 275.84 306.33 270.46
  C 300.93 266.27 293.14 268.47 288.15 272.16
  C 278.87 279.03 271.75 287.90 265.65 295.37
  C 261.20 300.81 255.26 299.57 250.54 295.22
  Q 229.45 275.80 224.67 271.57
  Q 203.66 252.98 193.24 243.53
  Q 189.76 240.37 183.22 235.80
  Q 180.79 234.09 178.57 236.08
  Q 168.23 245.36 157.70 251.98
  A 1.58 1.57 70.5 0 0 156.98 253.50
  Q 159.42 273.64 171.11 290.14
  Q 177.63 299.35 181.47 303.55
  Q 187.61 310.27 190.07 313.39
  C 196.03 321.00 191.48 327.17 183.76 330.02
  C 170.31 334.99 157.66 341.63 148.68 352.58
  C 135.13 369.11 137.35 388.67 145.87 407.02
  A 0.63 0.61 77.1 0 0 146.43 407.38
  L 249.25 408.00
  L 125.37 408.00
  Q 123.22 404.32 122.36 400.38
  Q 120.64 392.50 120.30 391.60
  A 7.92 7.90 -54.1 0 1 119.95 389.41
  L 119.92 387.14
  A 3.98 3.88 -51.5 0 0 119.84 386.35
  C 118.81 380.81 119.60 376.62 119.88 372.00
  C 120.55 360.64 126.45 348.69 133.39 340.41
  Q 137.58 335.41 143.23 330.74
  Q 153.78 322.01 165.42 315.80
  A 0.46 0.46 0.0 0 0 165.54 315.08
  Q 145.24 292.45 137.73 261.81
  A 0.46 0.46 0.0 0 0 137.14 261.48
  Q 123.15 266.02 108.78 266.96
  Q 92.22 268.05 74.91 263.33
  Q 70.46 262.12 61.84 258.01
  Q 40.80 247.99 29.17 227.94
  Q 19.21 210.78 17.22 192.21
  C 16.65 186.86 16.07 183.40 16.01 178.57
  Q 15.87 165.01 17.34 153.02
  Q 18.73 141.69 23.06 127.38
  Q 25.24 120.16 29.82 111.53
  Q 36.21 99.49 38.18 96.42
  C 57.05 67.01 89.42 43.17 125.25 42.28
  Q 154.07 41.56 177.52 55.26
  Q 197.19 66.76 208.29 88.63
  Q 212.38 96.69 215.54 107.67
  Q 218.21 116.93 218.73 127.76
  Q 219.33 140.17 219.04 150.01
  A 2.38 2.38 0.0 0 0 220.43 152.25
  Q 240.07 161.21 241.48 161.85
  Q 244.11 163.05 246.71 164.19
  Q 253.16 167.01 264.68 173.15
  A 0.61 0.61 0.0 0 1 264.65 174.25
  L 209.61 199.23
  A 11.59 11.55 -78.5 0 0 206.44 201.34
  Q 199.25 208.01 195.03 218.47
  A 1.59 1.58 -56.1 0 0 195.36 220.17
  Q 197.81 222.68 199.84 224.23
  C 209.59 231.70 216.81 238.43 225.95 246.57
  Q 245.07 263.58 252.17 270.26
  C 253.24 271.27 255.60 272.90 257.09 274.33
  A 0.62 0.62 0.0 0 0 257.94 274.33
  Q 261.93 270.55 263.68 264.48
  Q 264.29 262.36 263.32 254.03
  Q 262.42 246.22 263.52 235.86
  C 264.10 230.42 263.79 225.42 264.68 219.87
  C 265.07 217.39 264.76 214.58 265.35 212.13
  Q 265.94 209.67 265.81 208.32
  C 265.65 206.63 266.67 204.91 266.83 203.30
  Q 267.93 192.54 273.24 174.74
  Q 280.29 151.06 291.97 130.68
  Q 295.52 124.50 299.19 119.42
  A 1.39 1.38 36.3 0 0 298.89 117.50
  C 285.38 107.41 271.87 93.69 267.32 76.95
  C 266.35 73.36 264.67 69.25 263.92 64.59
  Q 262.24 54.13 262.18 52.50
  C 261.76 40.61 261.22 29.78 264.49 19.24
  Q 266.29 13.43 272.53 12.81
  Q 278.21 12.24 281.68 16.52
  Q 287.17 23.30 293.51 28.98
  Q 295.26 30.55 297.10 31.67
  C 315.20 42.68 333.63 48.24 354.44 51.30
  Q 370.32 53.64 387.00 54.90
  Q 390.67 55.17 397.23 54.83
  Q 400.91 54.64 407.14 52.56
  Q 411.63 51.06 421.89 48.18
  Q 452.44 39.60 487.98 36.59
  Q 496.43 35.88 502.57 36.02
  C 511.72 36.22 520.65 35.63 529.82 36.66
  C 535.17 37.26 541.41 37.75 546.66 38.69
  Q 567.10 42.38 587.39 49.91
  Q 606.16 56.88 621.49 67.52
  Q 632.02 74.82 643.00 84.91
  Z
  M 200.03 160.78
  Q 201.75 150.98 202.01 141.03
  C 202.72 113.35 193.51 83.79 168.27 69.71
  C 149.31 59.14 127.59 56.53 106.89 62.86
  C 80.61 70.89 59.49 92.07 47.21 116.21
  C 40.25 129.89 35.49 145.38 34.46 160.56
  Q 34.22 164.10 34.06 178.02
  C 33.82 198.96 41.31 221.17 57.79 234.73
  C 78.59 251.85 108.40 253.36 132.87 244.60
  C 156.64 236.08 177.22 217.79 188.23 194.82
  C 190.80 189.45 193.48 187.56 198.74 185.23
  Q 208.78 180.77 220.20 175.68
  Q 222.36 174.72 223.23 173.99
  A 1.15 1.14 37.2 0 0 222.96 172.07
  L 200.56 161.79
  A 0.93 0.92 17.4 0 1 200.03 160.78
  Z"
/>
<path fill="#6c6c6c" d="
  M 643.00 118.38
  L 643.00 319.59
  Q 628.65 325.76 621.01 329.77
  Q 600.83 340.36 578.60 358.09
  Q 559.87 373.02 545.11 391.86
  Q 540.00 398.38 534.09 406.83
  Q 533.29 407.96 530.36 408.00
  L 521.89 408.00
  Q 520.48 407.59 518.99 408.00
  L 518.52 408.00
  L 517.62 407.86
  A 0.38 0.38 0.0 0 1 517.52 407.13
  Q 529.55 401.64 537.75 391.71
  C 547.70 379.66 552.03 361.16 549.73 345.76
  C 547.59 331.44 539.04 319.08 525.79 313.06
  C 514.21 307.80 500.26 308.84 487.18 312.17
  A 0.23 0.23 0.0 0 1 486.99 311.77
  Q 492.17 307.87 495.17 303.90
  C 500.97 296.21 499.51 285.03 494.44 277.47
  C 484.24 262.23 464.25 256.78 446.78 259.14
  Q 439.16 260.16 427.49 262.95
  C 422.59 264.12 416.01 263.98 411.56 260.66
  C 408.88 258.66 407.84 254.48 407.27 251.37
  A 1.32 1.29 -22.4 0 1 407.83 250.06
  Q 423.61 239.37 434.94 223.46
  Q 444.76 209.68 449.19 190.80
  C 451.76 179.87 451.68 167.57 449.76 157.25
  Q 446.11 137.64 431.34 123.38
  C 420.21 112.62 403.01 106.89 387.78 108.09
  C 369.89 109.49 353.50 117.14 340.18 129.60
  Q 315.51 152.67 310.48 185.84
  C 307.68 204.26 312.10 225.44 323.71 239.77
  C 331.58 249.48 344.11 257.87 356.76 260.02
  Q 373.61 262.88 389.87 258.22
  A 1.02 1.02 0.0 0 1 391.07 258.74
  C 392.78 262.20 393.88 265.06 395.95 267.89
  Q 403.24 277.89 415.35 279.83
  Q 420.93 280.73 421.49 280.82
  A 2.43 2.42 78.5 0 1 423.13 281.91
  Q 427.94 289.38 434.44 296.52
  Q 451.33 315.04 476.59 314.89
  A 0.27 0.27 0.0 0 1 476.70 315.40
  Q 470.09 318.43 464.58 321.46
  C 456.42 325.95 450.02 325.76 440.01 325.47
  Q 434.06 325.30 429.70 321.79
  C 420.88 314.72 408.26 308.50 397.68 307.67
  C 385.43 306.70 372.94 311.39 364.39 320.46
  C 354.09 331.39 349.22 345.93 349.35 360.92
  Q 349.42 369.88 352.01 376.49
  C 356.82 388.79 367.92 398.03 381.26 399.27
  Q 393.99 400.44 407.72 396.65
  Q 411.55 395.60 418.97 392.96
  C 426.15 390.40 432.63 395.47 439.47 396.42
  C 445.44 397.26 451.63 396.51 457.47 395.29
  C 462.30 394.28 466.08 397.43 470.95 400.25
  Q 479.80 405.37 489.42 408.00
  L 480.00 408.00
  Q 411.33 407.71 377.00 407.90
  Q 374.11 407.92 373.43 407.54
  A 5.88 5.68 -10.5 0 1 372.60 406.99
  Q 371.92 406.46 364.69 399.16
  C 357.97 392.36 353.47 386.31 346.73 377.57
  C 342.05 371.50 339.75 363.79 338.27 358.56
  C 335.26 347.85 326.70 343.26 317.13 339.87
  A 0.88 0.87 -63.8 0 1 316.69 338.57
  Q 324.64 326.39 329.87 313.91
  Q 335.65 300.13 334.90 285.82
  C 334.18 272.05 325.65 259.30 313.83 252.19
  C 304.24 246.43 293.61 248.14 283.72 252.27
  A 0.58 0.57 77.9 0 1 282.93 251.75
  C 282.22 220.21 287.13 188.91 299.50 159.53
  C 305.06 146.33 311.36 136.02 319.67 125.99
  C 323.88 120.92 328.36 116.01 324.21 110.02
  Q 322.92 108.15 319.23 106.03
  C 309.94 100.72 304.01 97.75 297.77 90.69
  C 286.80 78.26 281.79 61.98 281.55 45.59
  A 0.33 0.33 0.0 0 1 282.07 45.32
  Q 300.52 57.99 322.57 64.41
  Q 345.65 71.13 370.26 73.16
  C 380.15 73.97 389.62 75.13 399.10 74.46
  C 405.69 73.99 411.64 71.61 420.75 68.77
  Q 429.06 66.18 451.81 61.36
  Q 490.18 53.24 528.98 56.51
  C 572.49 60.17 614.39 79.21 641.83 113.94
  Q 642.95 115.37 643.00 118.38
  Z
  M 571.4370 116.6116
  A 80.02 66.89 -58.2 0 0 472.4207 149.3719
  A 80.02 66.89 -58.2 0 0 487.1030 252.6284
  A 80.02 66.89 -58.2 0 0 586.1193 219.8681
  A 80.02 66.89 -58.2 0 0 571.4370 116.6116
  Z
  M 585.77 255.13
  L 582.99 262.68
  A 2.48 2.47 33.1 0 0 583.54 265.26
  Q 586.64 268.40 591.18 269.83
  C 596.01 271.35 598.74 263.25 598.97 260.06
  C 599.14 257.76 598.64 256.72 596.45 255.84
  Q 591.69 253.94 586.89 254.28
  A 1.30 1.29 -81.8 0 0 585.77 255.13
  Z
  M 617.06 284.48
  Q 616.34 283.75 614.04 282.30
  C 602.18 274.87 596.15 296.11 609.53 296.43
  C 616.31 296.59 617.57 291.59 617.56 285.70
  A 1.80 1.79 -67.5 0 0 617.06 284.48
  Z
  M 577.48 295.35
  Q 577.85 294.41 578.23 291.77
  C 580.13 278.18 558.69 281.28 563.76 293.39
  C 566.34 299.53 571.32 298.66 576.59 296.29
  A 1.77 1.76 -1.5 0 0 577.48 295.35
  Z"
/>
<path fill="#6c6c6c" d="
  M 200.03 160.78
  A 0.93 0.92 17.4 0 0 200.56 161.79
  L 222.96 172.07
  A 1.15 1.14 37.2 0 1 223.23 173.99
  Q 222.36 174.72 220.20 175.68
  Q 208.78 180.77 198.74 185.23
  C 193.48 187.56 190.80 189.45 188.23 194.82
  C 177.22 217.79 156.64 236.08 132.87 244.60
  C 108.40 253.36 78.59 251.85 57.79 234.73
  C 41.31 221.17 33.82 198.96 34.06 178.02
  Q 34.22 164.10 34.46 160.56
  C 35.49 145.38 40.25 129.89 47.21 116.21
  C 59.49 92.07 80.61 70.89 106.89 62.86
  C 127.59 56.53 149.31 59.14 168.27 69.71
  C 193.51 83.79 202.72 113.35 202.01 141.03
  Q 201.75 150.98 200.03 160.78
  Z
  M 95.18 173.50
  Q 107.67 175.78 116.98 176.59
  Q 120.07 176.85 122.04 175.55
  Q 125.13 173.49 128.14 169.92
  Q 137.91 158.36 144.23 142.73
  Q 148.88 131.22 148.27 118.52
  Q 147.81 109.04 141.41 102.29
  C 138.51 99.25 132.23 96.50 128.42 95.59
  C 115.58 92.50 104.74 101.19 98.93 111.95
  Q 96.01 117.35 94.32 121.27
  Q 88.06 135.76 90.13 151.19
  Q 91.24 159.47 94.47 172.82
  A 0.90 0.89 -0.9 0 0 95.18 173.50
  Z
  M 119.26 201.40
  A 17.59 17.59 0.0 0 0 101.67 183.81
  A 17.59 17.59 0.0 0 0 84.08 201.40
  A 17.59 17.59 0.0 0 0 101.67 218.99
  A 17.59 17.59 0.0 0 0 119.26 201.40
  Z"
/>
<path fill="#232323" d="
  M 94.47 172.82
  Q 91.24 159.47 90.13 151.19
  Q 88.06 135.76 94.32 121.27
  Q 96.01 117.35 98.93 111.95
  C 104.74 101.19 115.58 92.50 128.42 95.59
  C 132.23 96.50 138.51 99.25 141.41 102.29
  Q 147.81 109.04 148.27 118.52
  Q 148.88 131.22 144.23 142.73
  Q 137.91 158.36 128.14 169.92
  Q 125.13 173.49 122.04 175.55
  Q 120.07 176.85 116.98 176.59
  Q 107.67 175.78 95.18 173.50
  A 0.90 0.89 -0.9 0 1 94.47 172.82
  Z"
/>
<path fill="#232323" d="
  M 518.52 408.00
  L 489.42 408.00
  Q 479.80 405.37 470.95 400.25
  C 466.08 397.43 462.30 394.28 457.47 395.29
  C 451.63 396.51 445.44 397.26 439.47 396.42
  C 432.63 395.47 426.15 390.40 418.97 392.96
  Q 411.55 395.60 407.72 396.65
  Q 393.99 400.44 381.26 399.27
  C 367.92 398.03 356.82 388.79 352.01 376.49
  Q 349.42 369.88 349.35 360.92
  C 349.22 345.93 354.09 331.39 364.39 320.46
  C 372.94 311.39 385.43 306.70 397.68 307.67
  C 408.26 308.50 420.88 314.72 429.70 321.79
  Q 434.06 325.30 440.01 325.47
  C 450.02 325.76 456.42 325.95 464.58 321.46
  Q 470.09 318.43 476.70 315.40
  A 0.27 0.27 0.0 0 0 476.59 314.89
  Q 451.33 315.04 434.44 296.52
  Q 427.94 289.38 423.13 281.91
  A 2.43 2.42 78.5 0 0 421.49 280.82
  Q 420.93 280.73 415.35 279.83
  Q 403.24 277.89 395.95 267.89
  C 393.88 265.06 392.78 262.20 391.07 258.74
  A 1.02 1.02 0.0 0 0 389.87 258.22
  Q 373.61 262.88 356.76 260.02
  C 344.11 257.87 331.58 249.48 323.71 239.77
  C 312.10 225.44 307.68 204.26 310.48 185.84
  Q 315.51 152.67 340.18 129.60
  C 353.50 117.14 369.89 109.49 387.78 108.09
  C 403.01 106.89 420.21 112.62 431.34 123.38
  Q 446.11 137.64 449.76 157.25
  C 451.68 167.57 451.76 179.87 449.19 190.80
  Q 444.76 209.68 434.94 223.46
  Q 423.61 239.37 407.83 250.06
  A 1.32 1.29 -22.4 0 0 407.27 251.37
  C 407.84 254.48 408.88 258.66 411.56 260.66
  C 416.01 263.98 422.59 264.12 427.49 262.95
  Q 439.16 260.16 446.78 259.14
  C 464.25 256.78 484.24 262.23 494.44 277.47
  C 499.51 285.03 500.97 296.21 495.17 303.90
  Q 492.17 307.87 486.99 311.77
  A 0.23 0.23 0.0 0 0 487.18 312.17
  C 500.26 308.84 514.21 307.80 525.79 313.06
  C 539.04 319.08 547.59 331.44 549.73 345.76
  C 552.03 361.16 547.70 379.66 537.75 391.71
  Q 529.55 401.64 517.52 407.13
  A 0.38 0.38 0.0 0 0 517.62 407.86
  L 518.52 408.00
  Z
  M 431.28 170.65
  A 1.80 1.79 -20.1 0 0 432.22 168.63
  Q 431.97 167.57 430.07 159.11
  Q 425.55 138.95 407.57 130.72
  C 399.21 126.89 387.20 126.72 378.77 129.26
  C 360.98 134.62 345.32 147.86 337.60 165.30
  A 1.03 1.03 0.0 0 0 338.08 166.65
  C 345.02 170.08 350.59 173.07 357.98 174.99
  Q 376.45 179.78 395.42 177.99
  Q 409.68 176.65 421.66 173.92
  Q 427.25 172.65 431.28 170.65
  Z
  M 348.96 235.52
  Q 349.08 234.74 349.23 221.87
  C 349.26 218.53 349.88 215.72 350.06 212.51
  Q 350.21 210.00 351.37 205.59
  Q 352.54 201.12 353.91 195.32
  A 0.95 0.94 -77.1 0 0 353.21 194.19
  C 345.97 192.56 338.74 188.37 331.39 185.78
  A 0.84 0.84 0.0 0 0 330.28 186.47
  Q 329.05 196.24 329.94 205.98
  A 8.86 8.80 33.5 0 0 330.37 208.05
  Q 331.34 210.91 333.34 216.87
  C 335.99 224.76 342.56 229.88 348.22 235.75
  A 0.43 0.43 0.0 0 0 348.96 235.52
  Z
  M 427.99 193.10
  C 421.45 193.64 415.18 195.23 408.79 196.12
  C 398.31 197.58 388.82 197.37 378.50 197.67
  Q 376.51 197.73 374.69 198.05
  A 1.27 1.27 0.0 0 0 373.70 198.90
  C 369.08 212.54 366.08 226.32 371.52 240.45
  A 0.80 0.80 0.0 0 0 372.20 240.96
  C 379.95 241.57 387.62 239.11 394.53 235.05
  Q 419.22 220.57 428.42 193.65
  A 0.42 0.41 7.3 0 0 427.99 193.10
  Z
  M 442.18 277.42
  Q 442.21 278.72 443.01 280.03
  Q 450.72 292.60 465.10 296.90
  C 470.13 298.41 483.84 299.67 481.86 290.32
  Q 481.32 287.75 478.44 284.55
  C 471.90 277.27 461.56 274.28 452.24 275.33
  Q 444.91 276.15 443.13 276.33
  A 1.06 1.06 0.0 0 0 442.18 277.42
  Z
  M 418.49 335.02
  C 406.04 325.76 390.56 320.13 378.03 331.37
  Q 373.53 335.41 370.32 342.55
  C 366.23 351.66 364.98 363.40 369.17 372.28
  Q 371.06 376.29 375.68 379.39
  C 379.74 382.11 386.64 382.24 391.52 381.90
  Q 401.09 381.24 411.68 376.93
  A 0.64 0.62 -17.1 0 0 412.07 376.22
  Q 411.77 374.82 411.09 367.03
  Q 409.95 353.98 415.37 342.35
  Q 416.19 340.60 418.68 335.88
  A 0.68 0.68 0.0 0 0 418.49 335.02
  Z
  M 471.39 337.24
  A 0.73 0.72 62.0 0 0 471.09 338.23
  C 477.88 350.84 476.82 366.54 472.14 379.63
  A 1.10 1.10 0.0 0 0 472.53 380.88
  C 481.16 387.04 493.88 392.85 504.09 392.01
  C 525.23 390.27 534.32 367.67 532.26 349.10
  C 531.04 338.08 523.73 328.20 511.99 327.22
  C 497.68 326.03 483.91 330.78 471.39 337.24
  Z
  M 453.40 375.06
  Q 456.96 364.06 456.22 354.61
  Q 455.91 350.67 452.58 345.46
  A 1.63 1.63 0.0 0 0 451.21 344.71
  L 436.87 344.71
  A 1.06 1.06 0.0 0 0 435.97 345.21
  C 432.22 351.11 430.45 355.92 430.61 362.92
  Q 430.72 367.55 430.95 371.26
  C 431.09 373.52 432.17 373.46 433.73 374.25
  Q 441.77 378.31 451.57 376.65
  A 2.36 2.34 -85.8 0 0 453.40 375.06
  Z"
/>
<path fill="#232323" d="
  M 571.4370 116.6116
  A 80.02 66.89 -58.2 0 1 586.1193 219.8681
  A 80.02 66.89 -58.2 0 1 487.1030 252.6284
  A 80.02 66.89 -58.2 0 1 472.4207 149.3719
  A 80.02 66.89 -58.2 0 1 571.4370 116.6116
  Z
  M 483.88 169.35
  A 1.20 1.19 -63.2 0 0 484.36 170.83
  C 494.02 176.72 505.30 180.73 516.84 181.11
  C 526.45 181.43 535.85 181.54 544.03 179.78
  Q 561.94 175.93 578.90 168.78
  A 1.87 1.87 0.0 0 0 580.04 166.89
  Q 578.40 147.07 563.78 135.19
  C 552.41 125.96 534.97 125.84 521.84 131.15
  C 505.06 137.94 490.84 152.54 483.88 169.35
  Z
  M 577.47 190.60
  C 559.41 197.18 540.02 201.71 520.87 201.14
  A 0.83 0.82 11.4 0 0 520.07 201.67
  Q 515.39 214.03 518.39 225.39
  Q 520.07 231.71 526.25 240.70
  A 0.80 0.78 66.0 0 0 527.08 241.03
  C 552.12 235.14 570.38 215.18 577.87 190.99
  A 0.31 0.31 0.0 0 0 577.47 190.60
  Z
  M 478.26 191.43
  Q 477.61 199.73 479.30 207.37
  Q 481.41 216.87 484.55 222.56
  C 487.90 228.61 493.45 234.68 499.57 236.74
  A 0.95 0.94 -89.7 0 0 500.77 235.55
  C 497.76 226.38 496.89 216.19 498.67 206.55
  Q 499.20 203.65 499.24 199.83
  A 1.60 1.60 0.0 0 0 498.20 198.32
  L 478.71 191.14
  A 0.34 0.33 11.9 0 0 478.26 191.43
  Z"
/>
<path fill="#6c6c6c" d="
  M 431.28 170.65
  Q 427.25 172.65 421.66 173.92
  Q 409.68 176.65 395.42 177.99
  Q 376.45 179.78 357.98 174.99
  C 350.59 173.07 345.02 170.08 338.08 166.65
  A 1.03 1.03 0.0 0 1 337.60 165.30
  C 345.32 147.86 360.98 134.62 378.77 129.26
  C 387.20 126.72 399.21 126.89 407.57 130.72
  Q 425.55 138.95 430.07 159.11
  Q 431.97 167.57 432.22 168.63
  A 1.80 1.79 -20.1 0 1 431.28 170.65
  Z"
/>
<path fill="#6c6c6c" d="
  M 483.88 169.35
  C 490.84 152.54 505.06 137.94 521.84 131.15
  C 534.97 125.84 552.41 125.96 563.78 135.19
  Q 578.40 147.07 580.04 166.89
  A 1.87 1.87 0.0 0 1 578.90 168.78
  Q 561.94 175.93 544.03 179.78
  C 535.85 181.54 526.45 181.43 516.84 181.11
  C 505.30 180.73 494.02 176.72 484.36 170.83
  A 1.20 1.19 -63.2 0 1 483.88 169.35
  Z"
/>
<circle fill="#232323" cx="101.67" cy="201.40" r="17.59"/>
<path fill="#484848" d="
  M 348.96 235.52
  A 0.43 0.43 0.0 0 1 348.22 235.75
  C 342.56 229.88 335.99 224.76 333.34 216.87
  Q 331.34 210.91 330.37 208.05
  A 8.86 8.80 33.5 0 1 329.94 205.98
  Q 329.05 196.24 330.28 186.47
  A 0.84 0.84 0.0 0 1 331.39 185.78
  C 338.74 188.37 345.97 192.56 353.21 194.19
  A 0.95 0.94 -77.1 0 1 353.91 195.32
  Q 352.54 201.12 351.37 205.59
  Q 350.21 210.00 350.06 212.51
  C 349.88 215.72 349.26 218.53 349.23 221.87
  Q 349.08 234.74 348.96 235.52
  Z"
/>
<path fill="#a0a0a0" d="
  M 577.47 190.60
  A 0.31 0.31 0.0 0 1 577.87 190.99
  C 570.38 215.18 552.12 235.14 527.08 241.03
  A 0.80 0.78 66.0 0 1 526.25 240.70
  Q 520.07 231.71 518.39 225.39
  Q 515.39 214.03 520.07 201.67
  A 0.83 0.82 11.4 0 1 520.87 201.14
  C 540.02 201.71 559.41 197.18 577.47 190.60
  Z"
/>
<path fill="#484848" d="
  M 478.26 191.43
  A 0.34 0.33 11.9 0 1 478.71 191.14
  L 498.20 198.32
  A 1.60 1.60 0.0 0 1 499.24 199.83
  Q 499.20 203.65 498.67 206.55
  C 496.89 216.19 497.76 226.38 500.77 235.55
  A 0.95 0.94 -89.7 0 1 499.57 236.74
  C 493.45 234.68 487.90 228.61 484.55 222.56
  Q 481.41 216.87 479.30 207.37
  Q 477.61 199.73 478.26 191.43
  Z"
/>
<path fill="#a0a0a0" d="
  M 428.42 193.65
  Q 419.22 220.57 394.53 235.05
  C 387.62 239.11 379.95 241.57 372.20 240.96
  A 0.80 0.80 0.0 0 1 371.52 240.45
  C 366.08 226.32 369.08 212.54 373.70 198.90
  A 1.27 1.27 0.0 0 1 374.69 198.05
  Q 376.51 197.73 378.50 197.67
  C 388.82 197.37 398.31 197.58 408.79 196.12
  C 415.18 195.23 421.45 193.64 427.99 193.10
  A 0.42 0.41 7.3 0 1 428.42 193.65
  Z"
/>
<path fill="#a0a0a0" d="
  M 285.62 408.00
  L 284.09 408.00
  L 252.61 408.00
  L 249.25 408.00
  L 146.43 407.38
  A 0.63 0.61 77.1 0 1 145.87 407.02
  C 137.35 388.67 135.13 369.11 148.68 352.58
  C 157.66 341.63 170.31 334.99 183.76 330.02
  C 191.48 327.17 196.03 321.00 190.07 313.39
  Q 187.61 310.27 181.47 303.55
  Q 177.63 299.35 171.11 290.14
  Q 159.42 273.64 156.98 253.50
  A 1.58 1.57 70.5 0 1 157.70 251.98
  Q 168.23 245.36 178.57 236.08
  Q 180.79 234.09 183.22 235.80
  Q 189.76 240.37 193.24 243.53
  Q 203.66 252.98 224.67 271.57
  Q 229.45 275.80 250.54 295.22
  C 255.26 299.57 261.20 300.81 265.65 295.37
  C 271.75 287.90 278.87 279.03 288.15 272.16
  C 293.14 268.47 300.93 266.27 306.33 270.46
  Q 313.26 275.84 315.22 284.45
  C 317.14 292.87 313.10 305.35 309.08 312.85
  Q 302.09 325.92 298.54 330.81
  Q 291.84 340.05 289.00 346.48
  C 286.35 352.49 292.27 360.18 298.96 359.66
  C 308.01 358.96 319.60 356.41 321.06 368.61
  Q 321.98 376.35 316.71 383.43
  Q 305.68 398.23 288.61 407.16
  A 6.80 6.76 -63.6 0 1 286.76 407.79
  L 285.62 408.00
  Z
  M 249.46 392.50
  C 254.60 397.04 262.98 393.03 263.75 386.71
  C 264.20 382.94 262.14 380.30 259.89 376.12
  C 253.04 363.34 254.70 347.80 261.68 335.17
  Q 264.99 329.20 265.30 328.28
  C 267.27 322.56 260.70 315.89 255.21 317.01
  Q 250.86 317.89 248.48 321.34
  Q 239.00 335.10 237.13 352.62
  Q 235.30 369.77 243.71 385.39
  Q 245.79 389.26 249.46 392.50
  Z
  M 194.57 349.75
  C 191.02 351.97 186.96 357.13 188.99 361.51
  C 193.98 372.29 205.72 377.75 217.03 378.71
  Q 221.50 379.08 223.80 377.73
  Q 227.26 375.69 227.83 372.38
  C 229.81 360.93 219.92 360.98 212.38 358.86
  C 209.25 357.97 207.37 355.62 204.37 352.76
  C 201.43 349.97 199.73 349.75 195.56 349.49
  A 1.67 1.64 29.8 0 0 194.57 349.75
  Z"
/>
<path fill="#232323" d="
  M 586.89 254.28
  Q 591.69 253.94 596.45 255.84
  C 598.64 256.72 599.14 257.76 598.97 260.06
  C 598.74 263.25 596.01 271.35 591.18 269.83
  Q 586.64 268.40 583.54 265.26
  A 2.48 2.47 33.1 0 1 582.99 262.68
  L 585.77 255.13
  A 1.30 1.29 -81.8 0 1 586.89 254.28
  Z"
/>
<path fill="#484848" d="
  M 442.18 277.42
  A 1.06 1.06 0.0 0 1 443.13 276.33
  Q 444.91 276.15 452.24 275.33
  C 461.56 274.28 471.90 277.27 478.44 284.55
  Q 481.32 287.75 481.86 290.32
  C 483.84 299.67 470.13 298.41 465.10 296.90
  Q 450.72 292.60 443.01 280.03
  Q 442.21 278.72 442.18 277.42
  Z"
/>
<path fill="#232323" d="
  M 77.47 358.68
  Q 72.56 356.58 69.12 352.13
  Q 60.88 341.46 55.76 330.30
  Q 48.58 314.62 50.39 295.88
  C 51.15 288.11 52.67 279.91 61.01 278.27
  C 65.56 277.38 69.54 280.34 71.72 284.03
  A 2.24 2.19 28.6 0 1 72.03 285.04
  Q 72.25 289.27 71.97 291.01
  Q 70.48 300.25 70.21 306.45
  A 12.03 11.62 42.1 0 0 70.39 309.10
  Q 72.62 321.21 78.69 330.39
  Q 79.74 331.96 87.63 342.88
  C 90.38 346.68 91.40 351.82 87.70 355.36
  Q 83.56 359.33 78.68 358.97
  A 3.64 3.64 0.0 0 1 77.47 358.68
  Z"
/>
<path fill="#232323" d="
  M 617.56 285.70
  C 617.57 291.59 616.31 296.59 609.53 296.43
  C 596.15 296.11 602.18 274.87 614.04 282.30
  Q 616.34 283.75 617.06 284.48
  A 1.80 1.79 -67.5 0 1 617.56 285.70
  Z"
/>
<path fill="#232323" d="
  M 577.48 295.35
  A 1.77 1.76 -1.5 0 1 576.59 296.29
  C 571.32 298.66 566.34 299.53 563.76 293.39
  C 558.69 281.28 580.13 278.18 578.23 291.77
  Q 577.85 294.41 577.48 295.35
  Z"
/>
<path fill="#232323" d="
  M 105.95 293.31
  A 2.77 2.76 15.5 0 1 107.24 295.57
  Q 107.55 305.65 109.07 315.67
  Q 109.37 317.62 108.42 321.02
  A 2.50 2.48 74.3 0 1 107.87 322.01
  Q 104.71 325.42 99.52 326.15
  A 2.06 1.98 50.3 0 1 98.48 326.03
  Q 92.94 323.89 91.21 320.62
  C 86.67 312.06 84.67 300.43 91.02 292.08
  C 94.05 288.11 102.60 291.19 105.95 293.31
  Z"
/>
<path fill="#232323" d="
  M 249.46 392.50
  Q 245.79 389.26 243.71 385.39
  Q 235.30 369.77 237.13 352.62
  Q 239.00 335.10 248.48 321.34
  Q 250.86 317.89 255.21 317.01
  C 260.70 315.89 267.27 322.56 265.30 328.28
  Q 264.99 329.20 261.68 335.17
  C 254.70 347.80 253.04 363.34 259.89 376.12
  C 262.14 380.30 264.20 382.94 263.75 386.71
  C 262.98 393.03 254.60 397.04 249.46 392.50
  Z"
/>
<path fill="#232323" d="
  M 643.00 319.59
  L 643.00 339.16
  Q 609.30 354.20 583.47 376.97
  Q 569.15 389.59 554.26 408.00
  L 530.36 408.00
  Q 533.29 407.96 534.09 406.83
  Q 540.00 398.38 545.11 391.86
  Q 559.87 373.02 578.60 358.09
  Q 600.83 340.36 621.01 329.77
  Q 628.65 325.76 643.00 319.59
  Z"
/>
<path fill="#a0a0a0" d="
  M 418.68 335.88
  Q 416.19 340.60 415.37 342.35
  Q 409.95 353.98 411.09 367.03
  Q 411.77 374.82 412.07 376.22
  A 0.64 0.62 -17.1 0 1 411.68 376.93
  Q 401.09 381.24 391.52 381.90
  C 386.64 382.24 379.74 382.11 375.68 379.39
  Q 371.06 376.29 369.17 372.28
  C 364.98 363.40 366.23 351.66 370.32 342.55
  Q 373.53 335.41 378.03 331.37
  C 390.56 320.13 406.04 325.76 418.49 335.02
  A 0.68 0.68 0.0 0 1 418.68 335.88
  Z"
/>
<path fill="#a0a0a0" d="
  M 471.39 337.24
  C 483.91 330.78 497.68 326.03 511.99 327.22
  C 523.73 328.20 531.04 338.08 532.26 349.10
  C 534.32 367.67 525.23 390.27 504.09 392.01
  C 493.88 392.85 481.16 387.04 472.53 380.88
  A 1.10 1.10 0.0 0 1 472.14 379.63
  C 476.82 366.54 477.88 350.84 471.09 338.23
  A 0.73 0.72 62.0 0 1 471.39 337.24
  Z"
/>
<path fill="#484848" d="
  M 643.00 339.16
  L 643.00 408.00
  L 554.26 408.00
  Q 569.15 389.59 583.47 376.97
  Q 609.30 354.20 643.00 339.16
  Z"
/>
<path fill="#a0a0a0" d="
  M 453.40 375.06
  A 2.36 2.34 -85.8 0 1 451.57 376.65
  Q 441.77 378.31 433.73 374.25
  C 432.17 373.46 431.09 373.52 430.95 371.26
  Q 430.72 367.55 430.61 362.92
  C 430.45 355.92 432.22 351.11 435.97 345.21
  A 1.06 1.06 0.0 0 1 436.87 344.71
  L 451.21 344.71
  A 1.63 1.63 0.0 0 1 452.58 345.46
  Q 455.91 350.67 456.22 354.61
  Q 456.96 364.06 453.40 375.06
  Z"
/>
<path fill="#232323" d="
  M 195.56 349.49
  C 199.73 349.75 201.43 349.97 204.37 352.76
  C 207.37 355.62 209.25 357.97 212.38 358.86
  C 219.92 360.98 229.81 360.93 227.83 372.38
  Q 227.26 375.69 223.80 377.73
  Q 221.50 379.08 217.03 378.71
  C 205.72 377.75 193.98 372.29 188.99 361.51
  C 186.96 357.13 191.02 351.97 194.57 349.75
  A 1.67 1.64 29.8 0 1 195.56 349.49
  Z"
/>
<path fill="#484848" d="
  M 349.06 408.00
  L 321.31 408.00
  Q 323.89 406.04 325.89 403.36
  Q 330.08 397.75 334.99 392.33
  A 0.69 0.69 0.0 0 1 336.04 392.35
  L 349.06 408.00
  Z"
/>
<path fill="#484848" d="
  M 284.09 408.00
  L 252.61 408.00
  L 284.09 408.00
  Z"
/>
<path fill="#484848" d="
  M 521.89 408.00
  L 518.99 408.00
  Q 520.48 407.59 521.89 408.00
  Z"
/>
</svg>
