<?xml version="1.0" encoding="UTF-8" standalone="no"?>
<svg xmlns="http://www.w3.org/2000/svg" version="1.2" baseProfile="tiny" viewBox="0.00 0.00 200.00 200.00">
<path fill="#ffffff" d="
  M 168.98 114.10
  L 181.39 113.80
  Q 181.47 113.80 181.55 113.80
  Q 184.12 113.95 184.84 117.16
  Q 185.98 122.24 191.52 141.61
  A 2.63 2.53 38.1 0 1 191.62 142.32
  L 191.62 148.96
  A 1.08 1.07 72.2 0 1 191.18 149.83
  L 154.20 176.69
  A 1.83 1.78 22.6 0 1 153.37 177.02
  L 37.14 191.61
  A 0.48 0.47 82.0 0 1 36.61 191.21
  L 31.84 162.08
  A 1.25 1.25 0.0 0 1 32.00 161.22
  L 45.05 139.37
  A 0.25 0.25 0.0 0 0 44.82 138.99
  L 29.14 139.96
  A 0.82 0.81 -6.6 0 1 28.28 139.28
  L 24.19 114.32
  A 3.35 3.34 52.8 0 1 24.45 112.40
  L 35.17 88.75
  A 0.29 0.29 0.0 0 0 34.89 88.35
  L 20.49 89.24
  A 0.37 0.37 0.0 0 1 20.10 88.93
  L 16.80 62.64
  A 5.14 5.10 52.7 0 1 17.13 60.11
  L 34.52 17.01
  A 0.62 0.60 10.5 0 1 35.09 16.63
  L 159.15 16.63
  A 0.55 0.54 -6.7 0 1 159.68 17.04
  L 164.59 37.26
  A 2.87 2.85 -35.2 0 1 164.19 39.53
  L 148.32 63.44
  A 0.18 0.18 0.0 0 0 148.47 63.72
  Q 158.87 63.89 167.91 63.52
  Q 170.42 63.42 171.06 65.98
  Q 174.11 78.11 177.40 90.08
  Q 178.32 93.40 176.78 96.32
  Q 172.54 104.35 168.45 113.29
  A 0.57 0.57 0.0 0 0 168.98 114.10
  Z
  M 153.71 123.00
  L 170.02 92.17
  A 1.15 1.14 51.2 0 0 170.11 91.31
  L 164.24 70.73
  A 0.67 0.67 0.0 0 0 163.57 70.25
  L 141.25 70.92
  A 0.90 0.89 -73.0 0 0 140.54 71.30
  L 125.75 92.37
  A 0.28 0.27 14.5 0 0 126.01 92.80
  L 141.55 91.22
  A 0.31 0.30 -77.4 0 1 141.84 91.68
  L 121.63 125.53
  A 1.52 1.50 -76.2 0 1 120.43 126.27
  L 96.12 127.78
  A 0.28 0.27 -74.4 0 1 95.88 127.35
  L 155.59 37.40
  A 1.44 1.44 0.0 0 0 155.78 36.19
  L 152.06 23.16
  A 0.39 0.38 82.0 0 0 151.69 22.88
  L 44.66 22.88
  A 0.46 0.45 -4.7 0 0 44.20 23.41
  L 47.18 41.60
  A 0.97 0.97 0.0 0 0 48.14 42.42
  L 77.25 42.42
  A 0.16 0.16 0.0 0 1 77.38 42.68
  L 53.38 74.06
  A 1.28 1.25 -31.3 0 0 53.13 75.04
  L 56.58 96.13
  A 0.53 0.52 -6.3 0 0 57.12 96.56
  L 87.08 94.70
  A 0.27 0.27 0.0 0 1 87.32 95.13
  L 63.46 129.13
  A 1.56 1.55 -32.2 0 0 63.19 130.30
  L 66.95 153.26
  A 0.51 0.51 0.0 0 0 67.50 153.69
  L 182.44 141.99
  A 0.49 0.48 -10.3 0 0 182.86 141.39
  L 178.15 122.00
  A 0.94 0.94 0.0 0 0 177.14 121.28
  L 154.13 123.62
  A 0.43 0.42 -79.4 0 1 153.71 123.00
  Z"
/>
<path fill="#ffffff" d="
  M 103.34 40.54
  L 119.32 40.54
  A 0.34 0.34 0.0 0 1 119.56 41.11
  L 97.44 64.30
  A 0.34 0.34 0.0 0 1 97.19 64.41
  L 81.21 64.41
  A 0.34 0.34 0.0 0 1 80.97 63.84
  L 103.09 40.65
  A 0.34 0.34 0.0 0 1 103.34 40.54
  Z"
/>
</svg>
